<?xml version="1.0" encoding="utf-8"?>
<!-- Generator: Adobe Illustrator 16.0.0, SVG Export Plug-In . SVG Version: 6.00 Build 0)  -->
<!DOCTYPE svg PUBLIC "-//W3C//DTD SVG 1.1//EN" "http://www.w3.org/Graphics/SVG/1.1/DTD/svg11.dtd">
<svg version="1.1" id="Capa_1" xmlns="http://www.w3.org/2000/svg" xmlns:xlink="http://www.w3.org/1999/xlink" x="0px" y="0px"
	 width="595.279px" height="841.891px" viewBox="0 0 595.279 841.891" enable-background="new 0 0 595.279 841.891"
	 xml:space="preserve">
<path fill="#414343" d="M587.142,638.013L471.225,522.097c-5.232-5.231-12.324-8.139-19.766-8.139h-18.951
	c32.09-41.042,51.156-92.664,51.156-148.82c0-133.589-108.242-241.833-241.833-241.833C108.243,123.305,0,231.548,0,365.138
	C0,498.727,108.243,606.97,241.832,606.97c56.156,0,107.778-19.066,148.82-51.155v18.95c0,7.44,2.906,14.533,8.14,19.766
	l115.916,115.917c10.93,10.93,28.602,10.93,39.414,0l32.903-32.903C597.954,666.614,597.954,648.942,587.142,638.013z
	 M241.832,513.958c-82.199,0-148.818-66.504-148.818-148.82c0-82.2,66.504-148.82,148.818-148.82
	c82.2,0,148.82,66.504,148.82,148.82C390.653,447.338,324.149,513.958,241.832,513.958z"/>
</svg>
