<?xml version="1.0" encoding="utf-8"?>
<!-- Generator: Adobe Illustrator 16.0.0, SVG Export Plug-In . SVG Version: 6.00 Build 0)  -->
<!DOCTYPE svg PUBLIC "-//W3C//DTD SVG 1.1//EN" "http://www.w3.org/Graphics/SVG/1.1/DTD/svg11.dtd">
<svg version="1.1" id="Capa_1" xmlns="http://www.w3.org/2000/svg" xmlns:xlink="http://www.w3.org/1999/xlink" x="0px" y="0px"
	 width="595.279px" height="841.891px" viewBox="0 0 595.279 841.891" enable-background="new 0 0 595.279 841.891"
	 xml:space="preserve">
<path fill="#C4330C" d="M331.465,403.115c1.188,6.284,2.036,12.566,2.036,20.717c0,71.148-47.714,121.578-119.54,121.578
	c-68.771,0-124.467-55.694-124.467-124.464c0-68.771,55.696-124.467,124.467-124.467c33.619,0,61.638,12.226,83.371,32.603
	l-33.79,32.433c-9.169-8.83-25.3-19.188-49.581-19.188c-42.451,0-77.092,35.15-77.092,78.62s34.641,78.619,77.092,78.619
	c49.241,0,67.75-35.489,70.637-53.66h-70.637v-42.79H331.465L331.465,403.115z M451.655,407.288v-36.129h-36.302v36.129h-36.13
	v36.303h36.13v36.13h36.302v-36.13h36.129v-36.303H451.655z"/>
</svg>
