<?xml version="1.0" encoding="utf-8"?>
<!-- Generator: Adobe Illustrator 16.0.0, SVG Export Plug-In . SVG Version: 6.00 Build 0)  -->
<!DOCTYPE svg PUBLIC "-//W3C//DTD SVG 1.1//EN" "http://www.w3.org/Graphics/SVG/1.1/DTD/svg11.dtd">
<svg version="1.1" id="Capa_1" xmlns="http://www.w3.org/2000/svg" xmlns:xlink="http://www.w3.org/1999/xlink" x="0px" y="0px"
	 width="595.279px" height="841.891px" viewBox="0 0 595.279 841.891" enable-background="new 0 0 595.279 841.891"
	 xml:space="preserve">
<path fill="#469AE9" d="M447.453,344.123c0.238,3.351,0.238,6.701,0.238,10.052c0,102.189-77.778,219.937-219.934,219.937
	c-43.796,0-84.48-12.685-118.703-34.702c6.222,0.719,12.204,0.957,18.666,0.957c36.138,0,69.403-12.205,95.969-33.026
	c-33.983-0.717-62.463-22.975-72.276-53.608c4.788,0.719,9.574,1.196,14.6,1.196c6.94,0,13.881-0.957,20.343-2.631
	c-35.419-7.182-61.985-38.292-61.985-75.865v-0.957c10.291,5.744,22.257,9.334,34.94,9.812
	c-20.821-13.881-34.461-37.573-34.461-64.377c0-14.359,3.827-27.522,10.528-39.01c38.054,46.906,95.251,77.54,159.389,80.891
	c-1.197-5.744-1.914-11.727-1.914-17.71c0-42.599,34.461-77.3,77.299-77.3c22.258,0,42.36,9.333,56.48,24.411
	c17.469-3.351,34.223-9.813,49.061-18.668c-5.745,17.95-17.949,33.027-33.983,42.6c15.555-1.675,30.633-5.983,44.513-11.966
	C475.694,319.474,462.531,333.114,447.453,344.123z"/>
</svg>
