<?xml version="1.0" encoding="utf-8"?>
<!-- Generator: Adobe Illustrator 16.0.0, SVG Export Plug-In . SVG Version: 6.00 Build 0)  -->
<!DOCTYPE svg PUBLIC "-//W3C//DTD SVG 1.1//EN" "http://www.w3.org/Graphics/SVG/1.1/DTD/svg11.dtd">
<svg version="1.1" id="Capa_1" xmlns="http://www.w3.org/2000/svg" xmlns:xlink="http://www.w3.org/1999/xlink" x="0px" y="0px"
	 width="595.279px" height="841.891px" viewBox="0 0 595.279 841.891" enable-background="new 0 0 595.279 841.891"
	 xml:space="preserve">
<path fill="#FCFCFC" d="M297.64,276.776c-79.643,0-144.169,64.527-144.169,144.169c0,79.643,64.526,144.17,144.169,144.17
	s144.17-64.527,144.17-144.17C441.81,341.303,377.282,276.776,297.64,276.776z M297.64,537.211
	c-64.237,0-116.267-52.029-116.267-116.266c0-64.237,52.029-116.266,116.267-116.266c64.236,0,116.266,52.029,116.266,116.266
	C413.906,485.182,361.877,537.211,297.64,537.211z M333.566,476.52l-49.354-35.866c-1.802-1.338-2.848-3.431-2.848-5.64v-95.455
	c0-3.836,3.139-6.976,6.976-6.976h18.603c3.838,0,6.978,3.14,6.978,6.976v82.375l38.832,28.252c3.14,2.269,3.778,6.627,1.512,9.768
	l-10.929,15.057C341.066,478.09,336.705,478.787,333.566,476.52L333.566,476.52z"/>
</svg>
